<?xml version="1.0" encoding="UTF-8"?>
<svg id="Lag_1" data-name="Lag 1" xmlns="http://www.w3.org/2000/svg" viewBox="0 0 403.66 286.88">
  <defs>
    <style>
      .cls-1 {
        stroke: #4c4a33;
      }

      .cls-1, .cls-2 {
        fill: none;
        stroke-miterlimit: 10;
        stroke-width: 2px;
      }

      .cls-3 {
        fill: #000;
        font-family: Didot-Bold, Didot;
        font-size: 48px;
        font-weight: 700;
      }

      .cls-4 {
        fill: #a9ba9f;
      }

      .cls-4, .cls-5 {
        stroke-width: 0px;
      }

      .cls-2 {
        stroke: #889c74;
      }

      .cls-5 {
        fill: #889c74;
      }
    </style>
  </defs>
  <circle class="cls-1" cx="62.06" cy="62.73" r="41.5"/>
  <g>
    <path class="cls-4" d="M402.16,36.48c-.26-4.54-.44-9.08-.53-13.63-.57-7.12-1.13-14.25-1.35-21.39-13.21,10.97-28.5,19.32-44.3,25.95-10.62,4.32-21.19,8.75-31.98,12.69-19.55,7.14-40.5,13.32-56.37,27.31-16.12,14.13-27.49,32.99-43.59,47.12-14.63,12.47-31.55,22.28-49.7,28.6-8.71,3.04-17.65,5.35-26.49,7.94-15.07,4.34-29.9,9.59-44.67,14.73-14.96,5.15-29.69,11.24-42.82,20.18-18.56,12.01-32.78,24.4-43.73,43.96-9.54,16.08-12.31,34.87-14.65,53.16l.1-.35c7.79-.09,15.6.52,23.32,1.66.66.1,1.32.18,1.98.28,13.79-.28,27.59-.86,41.26-2.06,10.09-.88,23.92-2.61,34.76,1.01,4.49.3,8.98.93,13.4,1.35,2.32.22,4.65.35,6.99.45,19.67-.62,39.32-1.69,59.01-1.4.21,0,.4.03.6.06.25-.03.5-.06.77-.06,24.06-.04,48.09-1.33,72.15-1.37.22,0,.43.03.64.05.23-.03.48-.05.73-.05,47.22-.05,94.44-3.82,141.64-1.95.57-7.26,1.12-14.52,1.45-21.79-2.27-44.53.27-89.23.31-133.81,0-.44.05-.85.14-1.23-.18-2.94-.14-5.89-.14-8.82,0-7.87.09-15.73.22-23.6.12-6.98.29-13.95.47-20.92-.15-.48-.23-1.01-.23-1.6.02-10.82.37-21.63.63-32.45Z"/>
    <path class="cls-4" d="M403.66,36.48c-.33-5.73-.37-11.47-.81-17.19s-.87-11.88-1.07-17.83c-.05-1.38-1.57-1.88-2.56-1.06-13.24,10.93-28.51,19.34-44.36,25.85-8.56,3.52-17.11,7.05-25.76,10.34-7.72,2.94-15.55,5.58-23.3,8.46-14.72,5.46-29.07,12-40.78,22.68-12.29,11.21-21.82,24.97-33.16,37.07-11.3,12.06-25.02,21.73-39.75,29.16-16.11,8.13-33.52,12.21-50.68,17.43-9.01,2.74-17.93,5.75-26.82,8.83-8.36,2.9-16.78,5.69-25,8.98-15.24,6.08-29.34,14.19-42.41,24.1-11.52,8.73-21.59,19.07-29.24,31.39-4.27,6.89-7.83,14.09-10.34,21.81s-4.2,16.12-5.46,24.34c-.63,4.07-1.17,8.16-1.69,12.24-.22,1.71,2.51,1.98,2.95.4l.1-.35-1.45,1.1c6.5-.05,13,.34,19.46,1.14,3.21.4,6.18.8,9.42.72s6.63-.18,9.94-.3c12.44-.46,24.79-1.59,37.2-2.5,5.56-.41,11.17-.6,16.72.03,2.83.32,5.43,1.18,8.18,1.76s6.06.56,8.99.89c3.15.36,6.3.68,9.47.85s6.61-.03,9.91-.15c6.64-.24,13.29-.5,19.93-.72,12.95-.42,25.88-.34,38.82-.46s26.69-.58,40.03-.92c26.42-.68,52.84-.66,79.26-1.51,26.65-.86,53.31-1.81,79.97-1.17,3.32.08,6.63.19,9.94.31.86.03,1.44-.72,1.5-1.5.62-7.84,1.73-15.93,1.35-23.78s-.62-16.18-.74-24.27c-.24-16.07-.04-32.13.26-48.2s.69-32.14.83-48.21c.14-15.57.03-31.15.32-46.73.33-17.69.4-35.33.83-53.03.05-1.93-2.95-1.93-3,0-.38,15.75-.37,31.48-.71,47.22-.33,15.52-.31,31.05-.39,46.57-.16,32.14-1.47,64.27-1.2,96.41.08,9.02.28,18.05.66,27.06s-.5,17.99-1.21,26.96l1.5-1.5c-26.65-1.04-53.32-.32-79.97.54-13.26.43-26.52.88-39.79,1.15s-26.34.18-39.51.44c-13.21.26-26.42.73-39.64.99s-26.1.02-39.16.33c-6.65.16-13.29.39-19.93.64s-13.29.87-19.88.52c-3.17-.17-6.32-.5-9.47-.85s-6.4-.36-9.4-1.17c-5.29-1.42-10.7-1.92-16.16-1.88-11.87.09-23.73,1.8-35.59,2.43-6.62.35-13.25.58-19.87.75s-12.76-1.24-19.14-1.62c-3.24-.19-6.49-.27-9.74-.24-.66,0-1.27.46-1.45,1.1l-.1.35,2.95.4c2.14-16.59,4.59-33.67,12.39-48.69,6.83-13.16,16.14-24.68,27.48-34.2,12.17-10.21,25.94-18.9,40.46-25.32,8.14-3.6,16.54-6.51,24.94-9.44s17.28-6.01,25.99-8.81c16.89-5.42,34.39-9.18,50.71-16.25,14.97-6.48,29.41-15.35,41.45-26.41s21.5-24.63,32.66-36.58c5.55-5.94,11.51-11.44,18.35-15.86s13.88-7.73,21.23-10.7,14.76-5.51,22.17-8.17c8.52-3.06,16.93-6.4,25.31-9.82,15.74-6.42,31.17-13.26,45.17-23.04,3.28-2.3,6.47-4.73,9.56-7.28l-2.56-1.06c.2,5.95.61,11.89,1.07,17.83s.49,11.46.81,17.19c.11,1.92,3.11,1.93,3,0Z"/>
  </g>
  <path class="cls-5" d="M3.01,283.08c2.66-30.61,24.64-54.77,49.84-70.21,14.42-8.83,30.32-15.42,46.18-21.15,16.89-6.09,34.2-10.94,51.64-15.19,17.56-4.28,35.25-7.99,52.91-11.85,15.63-3.41,31.49-6.11,45.55-14.11,24.13-13.72,39.99-37.29,58.16-57.51,4.92-5.47,10.04-10.88,15.46-15.85,6-5.5,12.69-10.21,19.75-14.25,15-8.58,31.68-13.06,47.17-20.57,4.06-1.97,8.02-4.1,11.9-6.41,1.66-.98.15-3.58-1.51-2.59-8.03,4.77-16.48,8.73-25.13,12.26-7.8,3.19-15.79,5.71-23.44,9.29s-14.75,7.62-21.47,12.5-12.08,10.16-17.66,15.82c-19.5,19.79-34.65,44.37-57.81,60.35-5.82,4.02-12.09,7.42-18.72,9.92-7.88,2.97-16.23,4.53-24.43,6.35-17.96,3.99-35.97,7.71-53.88,11.91s-34.85,8.68-51.86,14.43c-16.51,5.58-32.99,12.1-48.28,20.53-25.37,13.98-48.83,36.1-55.64,65.21-.85,3.65-1.41,7.36-1.74,11.1-.17,1.92,2.83,1.91,3,0h0Z"/>
  <path class="cls-5" d="M13.09,282.78c2.57-14.18,9.44-28.16,19.53-38.49,10.8-11.06,22.31-21.79,35.85-29.39,14.65-8.23,30.62-13.75,46.54-18.96s32.88-9.98,49.61-13.93c16.74-3.95,33.56-7.54,50.4-11.01,15.33-3.16,30.91-6.72,44.62-14.59,23.88-13.72,39.51-37.23,56.77-57.92,9.4-11.26,20.67-20.3,33.37-27.6s26.19-12.88,39.68-18.4c3.84-1.57,7.68-3.15,11.5-4.78,1.77-.75.24-3.34-1.51-2.59-27.28,11.63-56.21,21.63-77.7,43.01-9.96,9.91-18.09,21.65-27.06,32.43-8.79,10.57-18.24,20.84-29.54,28.78-12.77,8.97-27.46,13.61-42.55,16.98-16.69,3.73-33.48,7.01-50.16,10.81-17.09,3.88-34.02,8.25-50.74,13.52-15.94,5.02-31.97,10.27-47.01,17.62s-26.53,16.65-37.94,27.73c-5.18,5.03-10.19,10.08-14.23,16.1s-7.37,12.83-9.72,19.81c-1.11,3.3-1.98,6.67-2.6,10.09-.34,1.89,2.55,2.7,2.89.8h0Z"/>
  <path class="cls-5" d="M25.43,283.21c4.17-12.82,11.72-24.09,21.03-33.76,9.82-10.19,21.27-19.31,33.58-26.3,13.32-7.56,27.71-12.77,42.12-17.8,15.3-5.35,31.01-9.48,46.79-13.18,15.91-3.74,31.93-6.99,47.91-10.4,14.5-3.09,29.12-5.78,42.71-11.93,24.31-11,42.58-30.34,58.2-51.46,9.02-12.2,19.05-23.47,31.67-32.03,12.66-8.59,26.62-14.95,40.73-20.76,3.49-1.44,6.99-2.84,10.49-4.25,1.77-.71,1-3.62-.8-2.89-14.19,5.71-28.45,11.42-41.77,19.01-6.68,3.81-13.26,8.03-19.13,13.01s-10.94,10.31-15.74,16.08-8.85,11.63-13.34,17.4c-4.18,5.36-8.59,10.54-13.31,15.43-9.01,9.34-19.16,17.59-30.55,23.88-5.8,3.21-11.88,5.89-18.17,7.99-7.37,2.47-15.01,4-22.6,5.65-16.16,3.53-32.37,6.78-48.51,10.41-16.1,3.62-32.12,7.62-47.86,12.6-14.51,4.59-29.12,9.85-42.77,16.63s-25.11,15.14-35.91,25.07c-9.84,9.04-18.54,19.57-24.15,31.78-1.35,2.94-2.53,5.96-3.53,9.03-.6,1.84,2.3,2.63,2.89.8h0Z"/>
  <path class="cls-5" d="M36.78,282.89c11.72-24.36,32.98-41.85,56.59-54.13,12.79-6.65,26.25-12.2,40.02-16.44,14.73-4.53,29.66-8.38,44.64-11.95s29.74-6.83,44.59-10.32c7.45-1.75,14.89-3.55,22.3-5.45,6.86-1.76,13.86-3.32,20.5-5.82,23.93-8.98,41.6-28.38,57.05-47.98,8.78-11.14,17.29-23.3,28.45-32.21,2.87-2.29,5.9-4.38,8.95-6.42s6.59-3.85,10.02-5.56c6.67-3.32,13.48-6.37,20.31-9.36,3.32-1.45,6.64-2.89,9.96-4.35,1.76-.77.24-3.36-1.51-2.59-6.81,2.98-13.64,5.9-20.39,9s-13.92,6.24-20.17,10.45c-5.89,3.96-11.49,8.16-16.42,13.29s-9.64,10.84-14.15,16.52c-16.08,20.27-32.33,41.86-56.2,53.44-5.97,2.9-12.18,4.71-18.56,6.43-7.54,2.03-15.11,3.93-22.7,5.76-14.97,3.61-30.01,6.94-45.01,10.44-14.97,3.5-29.91,7.17-44.67,11.47-14.06,4.09-27.73,9.08-40.98,15.34-24.04,11.35-46.74,27.41-60.68,50.55-1.64,2.72-3.13,5.52-4.51,8.39-.83,1.73,1.75,3.26,2.59,1.51h0Z"/>
  <path class="cls-5" d="M51.84,282.31c7.08-11.06,16.33-20.5,26.65-28.57,5.29-4.14,10.87-7.92,16.58-11.45,3.32-2.06,7.01-3.6,10.56-5.24s7.02-3.18,10.55-4.71c7.17-3.11,14.31-6.23,21.75-8.62s14.36-4.46,21.59-6.5c14.33-4.03,28.78-7.58,43.31-10.83s29.63-6.3,44.49-9.21c1.34-.26,2.77-.37,3.99-1.03.9-.49,1.66-1.2,2.65-1.49,3.03-.89,6.25-1.23,9.31-2.09,5.73-1.6,11.3-3.77,16.61-6.43,21.26-10.62,37.5-28.65,52.1-46.96,3.77-4.73,7.46-9.51,11.16-14.29,4.01-5.18,8.97-9.74,14.08-13.82,10.29-8.2,22.02-14.39,33.79-20.17,2.88-1.41,5.78-2.81,8.67-4.2,1.74-.84.22-3.42-1.51-2.59-11.85,5.7-23.78,11.4-34.73,18.74-5.39,3.61-10.54,7.61-15.22,12.1s-8.54,9.57-12.51,14.67c-14.58,18.74-30.02,37.88-50.65,50.25-5.02,3.01-10.3,5.59-15.8,7.61-2.99,1.1-6.03,2.03-9.12,2.81-1.41.35-2.83.67-4.25.96-1.29.26-2.72.32-3.91.93-.92.47-1.7,1.26-2.69,1.56-1.82.56-3.86.75-5.73,1.11-3.81.75-7.62,1.51-11.43,2.27-7.4,1.49-14.79,3.02-22.16,4.61-14.66,3.17-29.26,6.6-43.74,10.5-7.23,1.95-14.42,4.01-21.57,6.2-3.67,1.13-7.33,2.29-10.98,3.48s-7.08,2.73-10.58,4.21c-7.21,3.03-14.39,6.13-21.46,9.47-3.36,1.59-6.66,3.18-9.81,5.16-2.86,1.81-5.69,3.68-8.45,5.64-10.7,7.55-20.63,16.27-28.67,26.65-1.93,2.49-3.75,5.07-5.45,7.73-1.04,1.63,1.55,3.14,2.59,1.51h0Z"/>
  <path class="cls-5" d="M73.98,280.8c15.37-17.94,35.68-30.65,57.47-39.38,25.37-10.17,51.91-17.39,78.7-22.62,13.8-2.7,27.67-5.08,41.41-8.09,12.45-2.72,24.9-5.68,36.46-11.16,20.44-9.69,37.06-25.57,51.84-42.39,7.76-8.83,14.5-18.51,22.57-27.07,4.13-4.39,8.59-8.49,13.49-12.02,1.21-.87,2.45-1.71,3.71-2.51,1.42-.9,2.52-1.8,3.71-2.99,2.28-2.28,5.52-3.48,8.43-4.79s5.67-2.51,8.37-4.05c1.68-.95.17-3.55-1.51-2.59-2.79,1.58-5.72,2.85-8.64,4.17-2.6,1.17-5.83,2.29-7.92,4.28-1.22,1.17-2.28,2.32-3.72,3.23s-2.81,1.84-4.17,2.82c-2.4,1.73-4.71,3.59-6.92,5.55-4.43,3.92-8.47,8.26-12.28,12.77-3.8,4.5-7.22,9.3-10.99,13.81-14.54,17.38-30.58,34.34-50.5,45.57-10.87,6.13-22.47,9.71-34.56,12.61-13.7,3.28-27.57,5.77-41.41,8.39-14,2.64-27.99,5.43-41.73,9.26-12.93,3.61-25.8,7.59-38.37,12.32-22,8.27-42.93,19.4-59.59,36.26-2.07,2.09-4.05,4.26-5.97,6.5-1.25,1.46.86,3.59,2.12,2.12h0Z"/>
  <path class="cls-5" d="M103.12,281.81c16.79-14.52,37.21-23.81,57.98-31.14,23.05-8.12,46.72-14.47,70.54-19.88,23.02-5.23,46.71-8.66,68.96-16.82,19.3-7.08,35.25-20.61,48.57-35.98,14.07-16.23,26.16-34.64,43.66-47.53,2.34-1.72,4.75-3.35,7.2-4.9,1.63-1.03.12-3.63-1.51-2.59-9.39,5.93-17.68,13.16-25.18,21.34s-13.88,16.54-20.71,24.89c-13.05,15.95-27.92,30.8-46.92,39.45-10.42,4.74-21.81,7.57-32.91,10.2-11.58,2.74-23.27,4.99-34.91,7.48-23.97,5.15-47.82,11.37-71.07,19.19-20.95,7.04-41.81,15.52-59.51,29.03-2.15,1.64-4.26,3.35-6.31,5.12-1.46,1.26.67,3.38,2.12,2.12h0Z"/>
  <text class="cls-3" transform="translate(54.45 119.43)"><tspan x="0" y="0">Performance</tspan></text>
  <circle class="cls-2" cx="65.06" cy="64.73" r="41.5"/>
</svg>